<svg width="400" height="420" viewBox="0 0 400 420" fill="none" xmlns="http://www.w3.org/2000/svg">
  <ellipse cx="200" cy="310" rx="112" ry="92" fill="#E6ECF2" stroke="#425466" stroke-width="16" />
  <path
    d="M148 178c-32 0-58-30.6-58-68 0-36.9 24.4-76 58-76 25.8 0 41.8 24 54 64 2.6 8.5 4 17.7 4 26.9 0 29.6-26.4 53.1-58 53.1Z"
    fill="#E6ECF2"
    stroke="#425466"
    stroke-width="16"
    stroke-linecap="round"
    stroke-linejoin="round"
  />
  <path
    d="M252 178c-31.6 0-58-23.5-58-53.1 0-9.2 1.4-18.4 4-26.9 12.2-40 28.2-64 54-64 33.6 0 58 39.1 58 76 0 37.4-26 68-58 68Z"
    fill="#E6ECF2"
    stroke="#425466"
    stroke-width="16"
    stroke-linecap="round"
    stroke-linejoin="round"
  />
  <path
    d="M200 132c-60.5 0-110 40.3-110 104 0 63.4 46.2 116 110 116 63.8 0 110-52.6 110-116 0-63.7-49.5-104-110-104Z"
    fill="#F7F9FC"
    stroke="#425466"
    stroke-width="16"
  />
  <ellipse cx="168" cy="226" rx="16" ry="20" fill="#425466" />
  <ellipse cx="232" cy="226" rx="16" ry="20" fill="#425466" />
  <path
    d="M200 248c-8.3 0-15 6.7-15 15s6.7 15 15 15 15-6.7 15-15-6.7-15-15-15Z"
    fill="#F397A7"
  />
  <path
    d="M168 276c16.7 20 47.3 20 64 0"
    stroke="#425466"
    stroke-width="12"
    stroke-linecap="round"
  />
</svg>
