<svg xmlns="http://www.w3.org/2000/svg" viewBox="0 0 640 860">
  <defs>
    <linearGradient id="sky" x1="0%" y1="0%" x2="0%" y2="100%">
      <stop offset="0%" stop-color="#E3F5E4" />
      <stop offset="45%" stop-color="#F5FBF5" />
    </linearGradient>
    <radialGradient id="bubbleShade" cx="50%" cy="40%" r="70%">
      <stop offset="0%" stop-color="#FFFFFF" />
      <stop offset="100%" stop-color="#F1F4F7" />
    </radialGradient>
    <linearGradient id="tableGrad" x1="0%" y1="0%" x2="0%" y2="100%">
      <stop offset="0%" stop-color="#D69E6C" />
      <stop offset="100%" stop-color="#B77946" />
    </linearGradient>
    <linearGradient id="earInner" x1="0%" y1="0%" x2="0%" y2="100%">
      <stop offset="0%" stop-color="#FDE2E4" />
      <stop offset="100%" stop-color="#F9D5D9" />
    </linearGradient>
    <filter id="softShadow" x="-20%" y="-20%" width="140%" height="140%" color-interpolation-filters="sRGB">
      <feDropShadow dx="0" dy="12" stdDeviation="18" flood-color="#0F172A" flood-opacity="0.08" />
    </filter>
  </defs>
  <rect width="640" height="860" fill="url(#sky)" />
  <rect y="600" width="640" height="260" fill="url(#tableGrad)" />
  <g filter="url(#softShadow)">
    <path fill="url(#bubbleShade)" stroke="#5A6C7D" stroke-width="12" stroke-linecap="round" stroke-linejoin="round"
      d="M520 180c0-72-68-120-148-120-38 0-78 10-104 30-20-24-52-38-86-38-72 0-130 52-130 116 0 40 24 76 62 98-4 14-6 28-6 42 0 18 4 36 10 50 6-12 18-20 32-20 10 0 20 4 28 10 26-6 52-10 82-10 124 0 260-52 260-158z" />
  </g>
  <g transform="translate(160 352)" filter="url(#softShadow)">
    <ellipse cx="160" cy="256" rx="220" ry="70" fill="#ffffff" opacity="0.9" />
    <ellipse cx="160" cy="256" rx="200" ry="56" fill="#F8FAFC" stroke="#D1D5DB" stroke-width="8" />
    <path fill="#F8FAFC" stroke="#CBD5F5" stroke-width="12" d="M160 104c-52 0-94 42-94 94v34h188v-34c0-52-42-94-94-94z" />
    <g transform="translate(40 0)">
      <ellipse cx="60" cy="70" rx="48" ry="94" fill="#F9FAFB" stroke="#94A3B8" stroke-width="10" />
      <ellipse cx="220" cy="70" rx="48" ry="94" fill="#F9FAFB" stroke="#94A3B8" stroke-width="10" />
      <ellipse cx="60" cy="70" rx="26" ry="58" fill="url(#earInner)" />
      <ellipse cx="220" cy="70" rx="26" ry="58" fill="url(#earInner)" />
    </g>
    <circle cx="160" cy="160" r="120" fill="#FFFFFF" stroke="#94A3B8" stroke-width="12" />
    <ellipse cx="120" cy="160" rx="18" ry="26" fill="#0F172A" />
    <ellipse cx="200" cy="160" rx="18" ry="26" fill="#0F172A" />
    <path d="M160 198c-18 0-32 10-32 24 0 14 16 26 32 26s32-12 32-26c0-14-14-24-32-24z" fill="#F472B6" />
    <path d="M132 230c18 20 38 20 56 0" fill="none" stroke="#0F172A" stroke-width="10" stroke-linecap="round" />
    <circle cx="160" cy="184" r="10" fill="#FCA5A5" />
    <circle cx="120" cy="210" r="12" fill="#FECACA" opacity="0.6" />
    <circle cx="200" cy="210" r="12" fill="#FECACA" opacity="0.6" />
  </g>
</svg>
