<svg xmlns="http://www.w3.org/2000/svg" viewBox="0 0 240 360">
  <defs>
    <linearGradient id="leafGradient" x1="0%" x2="0%" y1="0%" y2="100%">
      <stop offset="0%" stop-color="#8ED081" />
      <stop offset="100%" stop-color="#58B368" />
    </linearGradient>
    <linearGradient id="carrotGradient" x1="0%" x2="0%" y1="0%" y2="100%">
      <stop offset="0%" stop-color="#FFB34D" />
      <stop offset="100%" stop-color="#F97316" />
    </linearGradient>
    <filter id="shadow" x="-20%" y="-20%" width="140%" height="140%" color-interpolation-filters="sRGB">
      <feDropShadow dx="0" dy="8" stdDeviation="10" flood-color="#000" flood-opacity="0.16" />
    </filter>
  </defs>
  <g filter="url(#shadow)">
    <path fill="url(#leafGradient)" stroke="#2D7C4B" stroke-width="12" stroke-linecap="round" stroke-linejoin="round"
      d="M72 56c-4 48 24 74 48 96 24-22 52-48 48-96-24 0-40 10-48 30C112 66 96 56 72 56z" />
    <path fill="url(#leafGradient)" stroke="#2D7C4B" stroke-width="12" stroke-linecap="round" stroke-linejoin="round"
      d="M120 52c8 36 32 52 60 68 4-34-6-70-32-84-12 4-20 10-28 16z" />
    <path fill="url(#leafGradient)" stroke="#2D7C4B" stroke-width="12" stroke-linecap="round" stroke-linejoin="round"
      d="M112 52c-8 36-32 52-60 68-4-34 6-70 32-84 12 4 20 10 28 16z" />
    <path fill="url(#carrotGradient)" stroke="#B45309" stroke-width="14" stroke-linecap="round" stroke-linejoin="round"
      d="M120 104c-48 0-76 42-80 98-2 34 6 70 22 102 16 32 38 50 58 50s42-18 58-50c16-32 24-68 22-102-4-56-32-98-80-98z" />
    <path d="M102 172h36M94 216h52M106 262h32" stroke="#B45309" stroke-width="14" stroke-linecap="round" />
  </g>
</svg>
