<svg width="512" height="420" viewBox="0 0 512 420" fill="none" xmlns="http://www.w3.org/2000/svg">
  <path
    d="M154 70C108 70 72 105 72 151c0 8.4 1 16.4 3 23.8C45.4 187 24 215.6 24 250c0 44.2 37.2 80 83.2 80 8 0 15.8-.9 23.4-2.6C153.4 363 196.2 388 244 388c44.6 0 83-21 104.6-52.6 12.8 4.7 26.6 7.2 40.9 7.2 73.9 0 133.5-55.4 133.5-123.6 0-18.3-3.8-35.6-10.7-51 24-16.1 39.7-41.9 39.7-71 0-44-41.2-82.8-92.8-82.8-12.8 0-25 2.2-36.3 6.3C404.9 33.5 366 58 332 58c-34.5 0-64.2 18.8-78.8 46.3-10.9-3.3-22.4-5.1-34.2-5.1Z"
    fill="#ffffff"
    stroke="#425466"
    stroke-width="18"
    stroke-linecap="round"
    stroke-linejoin="round"
  />
  <circle cx="128" cy="368" r="24" fill="#ffffff" stroke="#425466" stroke-width="14" />
  <circle cx="80" cy="406" r="16" fill="#ffffff" stroke="#425466" stroke-width="12" />
</svg>
